<?xml version="1.0" encoding="utf-8"?>
<!-- Generator: Adobe Illustrator 21.0.2, SVG Export Plug-In . SVG Version: 6.00 Build 0)  -->
<svg version="1.1" id="Слой_1" xmlns="http://www.w3.org/2000/svg" xmlns:xlink="http://www.w3.org/1999/xlink" x="0px" y="0px"
	 viewBox="0 0 29.126 38.579" style="enable-background:new 0 0 29.126 38.579;" xml:space="preserve">
<style type="text/css">
	.st0{fill:#3C3C3C;}
	.st1{fill-rule:evenodd;clip-rule:evenodd;}
	.st2{fill-rule:evenodd;clip-rule:evenodd;fill:#FFFFFF;}
	.st3{fill-rule:evenodd;clip-rule:evenodd;fill:none;stroke:#141515;stroke-width:0.9488;stroke-miterlimit:22.9256;}
	.st4{fill-rule:evenodd;clip-rule:evenodd;fill:#4D887B;}
	.st5{fill:#4D887B;}
</style>
<g>
	<path class="st5" d="M13.934,0.013C6.553,0.324,0.441,6.342,0.024,13.717c-0.145,2.563,0.374,4.998,1.402,7.137
		c0.042,0.089,8.827,12.608,12.006,17.136c0.552,0.786,1.714,0.783,2.267-0.002l11.843-16.815c1.013-1.982,1.584-4.23,1.584-6.61
		C29.126,6.31,22.264-0.337,13.934,0.013z M14.563,23.301c-4.825,0-8.738-3.914-8.738-8.738s3.912-8.738,8.738-8.738
		c4.824,0,8.738,3.914,8.738,8.738S19.387,23.301,14.563,23.301z"/>
</g>
</svg>
