<?xml version="1.0" encoding="utf-8"?>
<!-- Generator: Adobe Illustrator 21.0.2, SVG Export Plug-In . SVG Version: 6.00 Build 0)  -->
<svg version="1.1" id="Слой_1" xmlns="http://www.w3.org/2000/svg" xmlns:xlink="http://www.w3.org/1999/xlink" x="0px" y="0px"
	 viewBox="0 0 29.126 31.159" style="enable-background:new 0 0 29.126 31.159;" xml:space="preserve">
<style type="text/css">
	.st0{fill:#3C3C3C;}
	.st1{fill-rule:evenodd;clip-rule:evenodd;}
	.st2{fill-rule:evenodd;clip-rule:evenodd;fill:#FFFFFF;}
	.st3{fill-rule:evenodd;clip-rule:evenodd;fill:none;stroke:#141515;stroke-width:0.9488;stroke-miterlimit:22.9256;}
	.st4{fill-rule:evenodd;clip-rule:evenodd;fill:#4D887B;}
	.st5{fill:#4D887B;}
</style>
<path class="st5" d="M0.076,9.436c0.008-2.402,0.707-4.561,2.26-6.415C2.56,2.753,2.793,2.487,3.054,2.256
	c0.656-0.58,1.316-1.156,2-1.701c1-0.797,2.049-0.729,2.971,0.163c1.209,1.169,2.021,2.621,2.824,4.069
	c0.319,0.575,0.537,1.226,0.688,1.868c0.238,1.016-0.067,1.929-0.825,2.643c-0.591,0.557-1.203,1.103-1.868,1.565
	c-1.307,0.908-1.476,2.037-0.985,3.441c0.448,1.28,1.215,2.38,2.045,3.433c1.124,1.425,2.322,2.787,3.739,3.934
	c0.763,0.618,1.568,1.17,2.55,1.393c0.865,0.196,1.598-0.045,2.235-0.651c0.641-0.61,1.279-1.226,1.956-1.795
	c0.916-0.77,1.97-0.924,3.063-0.452c0.589,0.255,1.179,0.567,1.675,0.969c1.03,0.835,2.01,1.734,2.983,2.637
	c0.281,0.261,0.5,0.604,0.693,0.941c0.505,0.884,0.444,1.759-0.281,2.464c-0.987,0.959-1.964,1.941-3.168,2.647
	c-1.527,0.896-3.171,1.336-4.942,1.336c-2.175,0-4.174-0.637-6.071-1.647c-2.267-1.208-4.218-2.834-6.009-4.655
	c-2.071-2.106-3.946-4.373-5.486-6.902c-1.092-1.793-1.989-3.676-2.43-5.741C0.214,11.303,0.133,10.368,0,9.443
	C0.025,9.441,0.05,9.439,0.076,9.436z"/>
</svg>
