<?xml version="1.0" encoding="utf-8"?>
<!-- Generator: Adobe Illustrator 21.0.2, SVG Export Plug-In . SVG Version: 6.00 Build 0)  -->
<svg version="1.1" id="Слой_1" xmlns="http://www.w3.org/2000/svg" xmlns:xlink="http://www.w3.org/1999/xlink" x="0px" y="0px"
	 viewBox="0 0 29.126 19.693" style="enable-background:new 0 0 29.126 19.693;" xml:space="preserve">
<style type="text/css">
	.st0{fill:#3C3C3C;}
	.st1{fill-rule:evenodd;clip-rule:evenodd;}
	.st2{fill-rule:evenodd;clip-rule:evenodd;fill:#FFFFFF;}
	.st3{fill-rule:evenodd;clip-rule:evenodd;fill:none;stroke:#141515;stroke-width:0.9488;stroke-miterlimit:22.9256;}
	.st4{fill-rule:evenodd;clip-rule:evenodd;fill:#4D887B;}
	.st5{fill:#4D887B;}
</style>
<g>
	<path class="st5" d="M0.015,2.434c4.886,4.071,9.708,8.087,14.551,12.122c4.836-4.029,9.662-8.049,14.538-12.111
		c0.01,0.175,0.021,0.281,0.021,0.387c0.001,4.997,0.001,9.994,0,14.991c0,0.977-0.508,1.655-1.371,1.836
		c-0.14,0.029-0.288,0.034-0.432,0.034c-8.499,0.002-16.998,0.002-25.498,0.001c-1.085,0-1.821-0.717-1.822-1.792
		C-0.002,12.848,0.001,7.796,0.001,2.743C0.001,2.668,0.008,2.594,0.015,2.434z"/>
	<path class="st5" d="M14.566,11.988C9.91,8.109,5.285,4.256,0.646,0.391c0.351-0.3,0.737-0.39,1.162-0.39
		c2.788,0.003,5.577,0,8.365,0.001c5.711,0,11.421,0.002,17.132-0.002c0.428,0,0.813,0.093,1.189,0.385
		C23.849,4.254,19.22,8.111,14.566,11.988z"/>
</g>
</svg>
