<svg xmlns="http://www.w3.org/2000/svg" viewBox="0 0 194.3 90"><defs><style>.cls-1{fill:#3d8466;}</style></defs><title>Ресурс 1</title><g id="Слой_2" data-name="Слой 2"><g id="Слой_1-2" data-name="Слой 1"><polygon class="cls-1" points="0 71 180 71 180 73.2 0 73.2 0 71"/><path class="cls-1" d="M147.5,53h-3.2l-1.6,5h-2.1l2.1-6.7H148l-.5,1.7Zm1.6-1.6h3.4a1.91,1.91,0,0,1,1.5.5,1.56,1.56,0,0,1,.1,1.5A3.09,3.09,0,0,1,153,55a3.17,3.17,0,0,1-2,.6h-1.1l-.8,2.5H147l2.1-6.7Zm1.2,2.8h.5a2,2,0,0,0,.9-.2,1,1,0,0,0,.4-.5.45.45,0,0,0,0-.5,1,1,0,0,0-.7-.2h-.6l-.5,1.4Zm5.1-2.8h2.2v2.8l1.8-2.8h2.1l-3.8,5.2a8.17,8.17,0,0,1-.8.9,2.18,2.18,0,0,1-.8.5,3.59,3.59,0,0,1-1.1.2,6.82,6.82,0,0,1-1.2-.1l.4-1.4a5.64,5.64,0,0,1,.7.1,1.1,1.1,0,0,0,1-.5l-.5-4.9ZM166.7,58h-2.1l1.6-5h-2.3l-1.6,5h-2.1l2.1-6.7h6.4l-2,6.7Zm7.9,0h-2.1l1.6-5h-2.3l-1.6,5h-2l2.1-6.7h6.4L174.6,58Zm6-1.1h-2.4l-.7,1.1h-2.1l4.7-6.7h2.3l.4,6.7h-2.2V56.9Zm0-1.4V53.1l-1.5,2.4Z"/><path class="cls-1" d="M124.5,68h-2.3l-.3-1.7c-.1-.4-.1-.7-.2-.8a.52.52,0,0,0-.4-.2l-.8,2.6h-2.1l2.1-6.7h2.1l-.8,2.6c.2,0,.3-.1.5-.2s.4-.5.8-1a3.63,3.63,0,0,1,.8-.9,1.88,1.88,0,0,1,.9-.4,8.12,8.12,0,0,1,1.7-.1l-.5,1.4h-.1a1.55,1.55,0,0,0-.8.2c-.2.1-.4.4-.6.6a4.35,4.35,0,0,1-.6.7c-.2.1-.4.3-.6.4a1,1,0,0,1,.6.5,2.43,2.43,0,0,1,.3,1.1l.3,1.9Zm1.7-3.4a5.08,5.08,0,0,1,1.7-2.5,4.47,4.47,0,0,1,2.8-.9,2.61,2.61,0,0,1,2.3.9,3,3,0,0,1,.1,2.5,6.74,6.74,0,0,1-1,1.9,4.43,4.43,0,0,1-1.5,1.2,4.48,4.48,0,0,1-2,.4,3.21,3.21,0,0,1-1.8-.4,1.55,1.55,0,0,1-.8-1.1,5,5,0,0,1,.2-2Zm2.1,0a2.7,2.7,0,0,0-.1,1.5,1,1,0,0,0,.9.4,1.92,1.92,0,0,0,1.2-.4,4.49,4.49,0,0,0,.9-1.6,2.35,2.35,0,0,0,.1-1.4,1,1,0,0,0-.9-.4,1.5,1.5,0,0,0-1.1.4,3.07,3.07,0,0,0-1,1.5Zm7.2-3.3h2.7l-.3,4.1,2.3-4.1h2.7L140.8,68h-1.6l1.6-5.1L137.9,68h-1.5l.3-5.1L135.1,68h-1.7l2.1-6.7ZM148.7,68h-2.1l1.6-5h-2.3l-1.6,5h-2.1l2.1-6.7h6.4l-2,6.7Zm6.1-1.1h-2.3l-.7,1.1h-2.1l4.7-6.7h2.3l.4,6.7h-2.2l-.1-1.1Zm0-1.5V63l-1.5,2.4Zm5.1-4.1H162l-.7,2.3h2.3l.7-2.3h2.1L164.3,68h-2.1l.9-2.7h-2.3l-.9,2.7h-2.1l2.1-6.7Zm14.3,0L172.1,68h-1.9l1.2-3.7L167.7,68h-2l2.1-6.7h1.9L168.5,65l3.7-3.7Zm8,0L180.1,68h-1.9l1.2-3.7L175.7,68h-2l2.1-6.7h1.9L176.5,65l3.7-3.7Zm-1-1.6a2,2,0,0,1-.9.9,2.84,2.84,0,0,1-1.2.4,1.28,1.28,0,0,1-1-.4,1.22,1.22,0,0,1-.3-.9h.8c0,.4.2.6.7.6a1.25,1.25,0,0,0,1.1-.6Z"/><path d="M4.7,89.7V79.8H0V78.5H11.2v1.3H6.5v9.9Zm8.5,0V78.5H23.4v1.3H15.1v3.5h7.8v1.3H15.1v3.8h8.7v1.3H13.2ZM27.4,78.4h8.8V89.7H34.3V79.8H29.2v5.8a15.13,15.13,0,0,1-.2,2.6,2,2,0,0,1-.9,1.3,2.86,2.86,0,0,1-1.7.5,10.4,10.4,0,0,1-1.5-.2l.3-1.3a3.09,3.09,0,0,0,.8.2,1.28,1.28,0,0,0,1-.4,3.61,3.61,0,0,0,.3-1.8l.1-8.1Zm12,11.3V78.5H49.6v1.3H41.3v3.5h7.8v1.3H41.3v3.8H50v1.3H39.4ZM52.6,78.4h1.9v4.9a2.65,2.65,0,0,0,1.8-.4A7.33,7.33,0,0,0,57.6,81a9.13,9.13,0,0,1,1-1.6,3.13,3.13,0,0,1,1.1-.8,4.15,4.15,0,0,1,1.6-.3h1.1v1.3h-.8a2.27,2.27,0,0,0-1.3.3,4.16,4.16,0,0,0-1,1.5,5.28,5.28,0,0,1-1.2,1.8,6.66,6.66,0,0,1-1.2.6,5.27,5.27,0,0,1,2.7,2l2.9,3.7H60.2l-2.4-3a9,9,0,0,0-1.6-1.7,2.86,2.86,0,0,0-1.7-.5v5.3H52.6V78.4Zm10.6,5.8a5.35,5.35,0,0,1,1.9-4.4A7.23,7.23,0,0,1,70,78.2a7.82,7.82,0,0,1,3.5.7A5.4,5.4,0,0,1,76.7,84a5.61,5.61,0,0,1-.9,3.1,5,5,0,0,1-2.5,2,8,8,0,0,1-3.4.7,8.63,8.63,0,0,1-3.6-.8,6.11,6.11,0,0,1-2.4-2.1,6,6,0,0,1-.7-2.7Zm2,0a4,4,0,0,0,1.4,3.2,5.7,5.7,0,0,0,7,0A4.22,4.22,0,0,0,75,84.1a4.75,4.75,0,0,0-.6-2.4,4.36,4.36,0,0,0-1.7-1.6,5.42,5.42,0,0,0-2.5-.6,5.54,5.54,0,0,0-3.4,1.1,3.91,3.91,0,0,0-1.6,3.6Zm14,5.5V78.5H82l3.3,8c.3.7.5,1.3.7,1.7.2-.4.4-1,.8-1.8l3.4-7.8h2.5V89.9H90.9V80.2l-4.1,9.4H85.1L81,80v9.6H79.2Zm32.1-4,1.9.4a5,5,0,0,1-2.1,2.8,7.28,7.28,0,0,1-3.7,1,7.88,7.88,0,0,1-3.7-.7,5,5,0,0,1-2.2-2.1,6,6,0,0,1-.7-3,6.21,6.21,0,0,1,.8-3.1,5.88,5.88,0,0,1,2.4-2,7.67,7.67,0,0,1,3.4-.7,6.87,6.87,0,0,1,3.6.9,4.67,4.67,0,0,1,2,2.4l-1.8.3a3.68,3.68,0,0,0-1.4-1.8,4.27,4.27,0,0,0-2.4-.6,5.4,5.4,0,0,0-2.7.6,3.53,3.53,0,0,0-1.5,1.7,5.38,5.38,0,0,0-.4,2.2,6.18,6.18,0,0,0,.5,2.5,3.54,3.54,0,0,0,1.6,1.6,4.71,4.71,0,0,0,2.4.5,5,5,0,0,0,2.7-.7,5.14,5.14,0,0,0,1.3-2.2Zm4.2,4V78.5h10.2v1.3h-8.3v3.5h7.8v1.3h-7.8v3.8h8.7v1.3H115.5Zm13.1,0V78.5h5.3a13.47,13.47,0,0,1,2.2.1,5.76,5.76,0,0,1,1.7.5,2.91,2.91,0,0,1,1.1,1.1,2.82,2.82,0,0,1,.4,1.5,2.85,2.85,0,0,1-1.2,2.4c-.8.7-2.2,1-4.2,1h-3.6v4.6Zm1.9-6h3.7a5.39,5.39,0,0,0,2.6-.5,1.9,1.9,0,0,0,.8-1.5,1.59,1.59,0,0,0-.4-1.2,2.4,2.4,0,0,0-1.2-.7,7.16,7.16,0,0,0-1.7-.1h-3.6l-.2,4Zm11.2,6V78.5H147a9.28,9.28,0,0,1,2.6.3,2.49,2.49,0,0,1,1.5,1.1,2.4,2.4,0,0,1,.6,1.5,2.65,2.65,0,0,1-.5,1.4,2.84,2.84,0,0,1-1.5,1,3.79,3.79,0,0,1,2,1,2.19,2.19,0,0,1,.7,1.7A2.82,2.82,0,0,1,152,88a2.4,2.4,0,0,1-1,1,11.64,11.64,0,0,1-1.5.6,14,14,0,0,1-2.3.2h-5.5Zm1.9-6.6h3.1a8.66,8.66,0,0,0,1.8-.1,2,2,0,0,0,1.1-.6,1.78,1.78,0,0,0,.4-1,1.69,1.69,0,0,0-.3-1,1.44,1.44,0,0,0-1-.6,9.47,9.47,0,0,0-2.2-.2h-2.8l-.1,3.5Zm0,5.2h3.5a4.51,4.51,0,0,0,1.3-.1c.4-.1.8-.2,1.1-.3s.5-.4.7-.6a1.69,1.69,0,0,0,.3-1,1.5,1.5,0,0,0-.4-1.1,3,3,0,0,0-1.1-.7,10.61,10.61,0,0,0-2.1-.2h-3.3v4Zm11.5-9.9h1.7v8.9l7.5-8.9h1.9V89.7h-1.7V80.8L157,89.7h-1.9V78.4Zm24.2,7.3,1.9.4a5,5,0,0,1-2.1,2.8,7.28,7.28,0,0,1-3.7,1,7.88,7.88,0,0,1-3.7-.7,5,5,0,0,1-2.2-2.1,6,6,0,0,1-.7-3,6.21,6.21,0,0,1,.8-3.1,5.88,5.88,0,0,1,2.4-2,7.67,7.67,0,0,1,3.4-.7,6.87,6.87,0,0,1,3.6.9,4.67,4.67,0,0,1,2,2.4l-1.8.3a3.68,3.68,0,0,0-1.4-1.8,4.27,4.27,0,0,0-2.4-.6,5.4,5.4,0,0,0-2.7.6,3.53,3.53,0,0,0-1.5,1.7,5.38,5.38,0,0,0-.4,2.2,6.18,6.18,0,0,0,.5,2.5,3.54,3.54,0,0,0,1.6,1.6,4.71,4.71,0,0,0,2.4.5,5,5,0,0,0,2.7-.7,3.73,3.73,0,0,0,1.3-2.2Z"/><path d="M187.8,71.1V65.6h2.4a3.11,3.11,0,0,1,1.1.1,1,1,0,0,1,.6.5,1.08,1.08,0,0,1,.2.8,1.28,1.28,0,0,1-.4,1,1.91,1.91,0,0,1-1.2.5,1.38,1.38,0,0,1,.4.3,4.35,4.35,0,0,1,.6.7l.9,1.5h-.9l-.7-1.1a9.22,9.22,0,0,1-.5-.8c-.1-.2-.3-.3-.4-.4a.37.37,0,0,0-.3-.1h-1.2V71l-.6.1Zm.7-3.1H190a2,2,0,0,0,.8-.1,1.38,1.38,0,0,0,.4-.3.75.75,0,0,0,.1-.5.6.6,0,0,0-.3-.6c-.2-.2-.5-.2-.9-.2h-1.7l.1,1.7Z"/><path d="M190,64.1a4.45,4.45,0,0,1,2.9,1.2,4.25,4.25,0,0,1,1.2,2.9,4.45,4.45,0,0,1-1.2,2.9,4.25,4.25,0,0,1-2.9,1.2,4.45,4.45,0,0,1-2.9-1.2,4.25,4.25,0,0,1-1.2-2.9,4.45,4.45,0,0,1,1.2-2.9,4,4,0,0,1,2.9-1.2Zm2.6,1.5a3.63,3.63,0,1,0,1,2.5,3.74,3.74,0,0,0-1-2.5Z"/><polygon points="55.8 35.1 57.4 35.1 59.1 30.5 57 30.5 55.8 35.1"/><polygon points="55.8 35.7 54.9 35.7 55.2 34.9 56.4 30.3 56.6 29.9 57 29.9 59.4 29.9 64.8 15.3 90.3 15.3 96 0 19.8 0 14.1 15.3 37.3 15.3 17.6 68 45.1 68 57.2 35.7 55.8 35.7"/><path class="cls-1" d="M94.9,49a10.39,10.39,0,0,1-4.8.8,19.88,19.88,0,0,1-2.2-.2l-.6-.1-.1.2H78.7l-.3.9h4.1l-1.1,3.6h0a39.34,39.34,0,0,1-4.8-.6c-6.4-1-10.3-3.1-12.5-5.4l-.3,1.1-.1.5H56.8L57,49l3.7-13.2H55l.2-.8,1.3-4.6.1-.5H67.1c5.4-4.5,15.1-7.5,31.5-6.9,2.9.1,6.1.4,9.3.7l3.7-12A276.25,276.25,0,0,0,82.8,11c-25,.6-45.2,13.6-46,28.4-.6,10.1,3.6,21.3,24.8,25.8,11.3,2.4,20.2,1.8,31.1.9l3.7-11.8h0l1.1-3.6,1-3.1H96.9A7.18,7.18,0,0,1,94.9,49Z"/><path d="M156,49.8a11.33,11.33,0,0,1-5-1,5.25,5.25,0,0,1-2.5-3.4,10.82,10.82,0,0,1,.2-5.6,14.16,14.16,0,0,1,4.6-7.3,12.42,12.42,0,0,1,7.8-2.6c3.1,0,5.3.9,6.6,2.6s1.4,4.2.6,7.3a16.52,16.52,0,0,1-2.6,5.5,12,12,0,0,1-4.1,3.3A12.78,12.78,0,0,1,156,49.8Zm3.9-14.9A4.56,4.56,0,0,0,157,36a8,8,0,0,0-2.1,3.9c-.5,1.8-.5,3.1-.1,3.8a2.31,2.31,0,0,0,2.2,1.1,4.36,4.36,0,0,0,2.9-1.1,10.16,10.16,0,0,0,2.1-4.2c.5-1.7.5-2.9.1-3.6A2.25,2.25,0,0,0,159.9,34.9ZM90.1,49.5a18.32,18.32,0,0,1-2.1-.2l-.3-.1,1.2-4.3H90a2.08,2.08,0,0,0,1.5-.4,3,3,0,0,0,.9-1.7l3.5-12.5h16.3l-5.3,19.2h-6.3l3.9-14h-3.7L99.3,41a41.45,41.45,0,0,1-1.8,5.2A5.73,5.73,0,0,1,95,48.8,16.44,16.44,0,0,1,90.1,49.5Zm93.6-.1L187,37.6l-6.2,11.8h-4.7l.3-11.9-3.3,11.9h-5.3l5.4-19.2h8l-.3,10.3,5.4-10.3h8L189,49.4Zm-45.1,0-.9-5.1a4.22,4.22,0,0,0-.6-2,.6.6,0,0,0-.6-.3l-2,7.3h-6.3l5.3-19.2h6.3l-2,7.1a2.09,2.09,0,0,0,.6-.4,19.1,19.1,0,0,0,2-2.8,17,17,0,0,1,2-2.6,7.28,7.28,0,0,1,2.5-1.2,27.44,27.44,0,0,1,4.7-.3h.4l-1.3,4.6h-.5a4.06,4.06,0,0,0-2.1.5,5.16,5.16,0,0,0-1.5,1.7,12.48,12.48,0,0,1-1.5,1.9,4.44,4.44,0,0,1-1.1.8,3.45,3.45,0,0,1,1.2,1.2,11.68,11.68,0,0,1,1.1,3.2l1.1,5.5-6.8.1Zm-28.7,0,5.3-19.2h15.7l-1.3,4.6h-9.4l-.6,2.3h8.7l-1.2,4.4h-8.7l-.8,3h9.7L126,49.3H109.9Zm-38.8,0,5.3-19.2H92.1l-1.3,4.6H81.4l-.6,2.3h8.7l-1.2,4.4H79.6l-.8,3h9.7l-1.3,4.8H71.1Zm-13.9,0,3.9-14H55.4l1.4-5.2H74.6l-1.4,5.2H67.5l-3.9,14Z"/></g></g></svg>