<?xml version="1.0" encoding="utf-8"?>
<!-- Generator: Adobe Illustrator 21.1.0, SVG Export Plug-In . SVG Version: 6.00 Build 0)  -->
<svg version="1.1" id="Слой_1" xmlns="http://www.w3.org/2000/svg" xmlns:xlink="http://www.w3.org/1999/xlink" x="0px" y="0px"
	 viewBox="0 0 194.3 90" style="enable-background:new 0 0 194.3 90;" xml:space="preserve">
<style type="text/css">
	.st0{fill:#3D8466;}
	.st1{fill:#FFFFFF;}
	.st2{fill:#F9F9F9;}
	.st3{fill:#FFFDFD;}
</style>
<title>Ресурс 1</title>
<g id="Слой_2">
	<g id="Слой_1-2">
		<polygon class="st0" points="0,71 180,71 180,73.2 0,73.2 		"/>
		<path class="st0" d="M147.5,53h-3.2l-1.6,5h-2.1l2.1-6.7h5.3L147.5,53z M149.1,51.4h3.4c0.5-0.1,1.1,0.1,1.5,0.5
			c0.3,0.4,0.3,1,0.1,1.5c-0.2,0.6-0.6,1.2-1.1,1.6c-0.6,0.4-1.3,0.6-2,0.6h-1.1l-0.8,2.5H147C147,58.1,149.1,51.4,149.1,51.4z
			 M150.3,54.2h0.5c0.3,0,0.6-0.1,0.9-0.2c0.2-0.1,0.3-0.3,0.4-0.5c0.1-0.2,0.1-0.3,0-0.5c-0.2-0.2-0.4-0.2-0.7-0.2h-0.6L150.3,54.2
			L150.3,54.2z M155.4,51.4h2.2v2.8l1.8-2.8h2.1l-3.8,5.2c-0.2,0.3-0.5,0.6-0.8,0.9c-0.2,0.2-0.5,0.4-0.8,0.5
			c-0.4,0.1-0.7,0.2-1.1,0.2c-0.4,0-0.8,0-1.2-0.1l0.4-1.4c0.2,0,0.5,0.1,0.7,0.1c0.4,0,0.8-0.2,1-0.5L155.4,51.4L155.4,51.4z
			 M166.7,58h-2.1l1.6-5h-2.3l-1.6,5h-2.1l2.1-6.7h6.4L166.7,58L166.7,58z M174.6,58h-2.1l1.6-5h-2.3l-1.6,5h-2l2.1-6.7h6.4
			L174.6,58L174.6,58z M180.6,56.9h-2.4l-0.7,1.1h-2.1l4.7-6.7h2.3l0.4,6.7h-2.2V56.9z M180.6,55.5v-2.4l-1.5,2.4H180.6z"/>
		<path class="st0" d="M124.5,68h-2.3l-0.3-1.7c-0.1-0.4-0.1-0.7-0.2-0.8c-0.1-0.1-0.2-0.2-0.4-0.2l-0.8,2.6h-2.1l2.1-6.7h2.1
			l-0.8,2.6c0.2,0,0.3-0.1,0.5-0.2s0.4-0.5,0.8-1c0.2-0.3,0.5-0.6,0.8-0.9c0.3-0.2,0.6-0.3,0.9-0.4c0.6-0.1,1.1-0.1,1.7-0.1
			l-0.5,1.4h-0.1c-0.3,0-0.6,0.1-0.8,0.2c-0.2,0.1-0.4,0.4-0.6,0.6c-0.2,0.3-0.4,0.5-0.6,0.7c-0.2,0.1-0.4,0.3-0.6,0.4
			c0.3,0.1,0.5,0.3,0.6,0.5c0.2,0.3,0.3,0.7,0.3,1.1L124.5,68z M126.2,64.6c0.3-1,0.9-1.9,1.7-2.5c0.8-0.6,1.8-0.9,2.8-0.9
			c0.9-0.1,1.7,0.2,2.3,0.9c0.4,0.8,0.4,1.7,0.1,2.5c-0.2,0.7-0.6,1.3-1,1.9c-0.4,0.5-0.9,0.9-1.5,1.2c-0.6,0.3-1.3,0.4-2,0.4
			c-0.6,0-1.3-0.1-1.8-0.4c-0.4-0.2-0.7-0.6-0.8-1.1C125.9,65.9,126,65.2,126.2,64.6z M128.3,64.6c-0.2,0.5-0.2,1-0.1,1.5
			c0.2,0.3,0.6,0.4,0.9,0.4c0.4,0,0.9-0.1,1.2-0.4c0.4-0.5,0.7-1,0.9-1.6c0.2-0.4,0.2-0.9,0.1-1.4c-0.2-0.3-0.6-0.4-0.9-0.4
			c-0.4,0-0.8,0.1-1.1,0.4C128.8,63.5,128.5,64,128.3,64.6L128.3,64.6z M135.5,61.3h2.7l-0.3,4.1l2.3-4.1h2.7l-2.1,6.7h-1.6l1.6-5.1
			l-2.9,5.1h-1.5l0.3-5.1l-1.6,5.1h-1.7L135.5,61.3L135.5,61.3z M148.7,68h-2.1l1.6-5h-2.3l-1.6,5h-2.1l2.1-6.7h6.4L148.7,68
			L148.7,68z M154.8,66.9h-2.3l-0.7,1.1h-2.1l4.7-6.7h2.3l0.4,6.7h-2.2L154.8,66.9L154.8,66.9z M154.8,65.4V63l-1.5,2.4H154.8z
			 M159.9,61.3h2.1l-0.7,2.3h2.3l0.7-2.3h2.1l-2.1,6.7h-2.1l0.9-2.7h-2.3l-0.9,2.7h-2.1L159.9,61.3L159.9,61.3z M174.2,61.3
			l-2.1,6.7h-1.9l1.2-3.7l-3.7,3.7h-2l2.1-6.7h1.9l-1.2,3.7l3.7-3.7L174.2,61.3z M182.2,61.3l-2.1,6.7h-1.9l1.2-3.7l-3.7,3.7h-2
			l2.1-6.7h1.9l-1.2,3.7l3.7-3.7L182.2,61.3z M181.2,59.7c-0.2,0.4-0.5,0.7-0.9,0.9c-0.4,0.2-0.8,0.4-1.2,0.4c-0.4,0-0.7-0.1-1-0.4
			c-0.2-0.2-0.3-0.6-0.3-0.9h0.8c0,0.4,0.2,0.6,0.7,0.6c0.4,0,0.9-0.2,1.1-0.6H181.2z"/>
		<path class="st1" d="M4.7,89.7v-9.9H0v-1.3h11.2v1.3H6.5v9.9L4.7,89.7z M13.2,89.7V78.5h10.2v1.3h-8.3v3.5h7.8v1.3h-7.8v3.8h8.7
			v1.3L13.2,89.7L13.2,89.7z M27.4,78.4h8.8v11.3h-1.9v-9.9h-5.1v5.8c0,0.9-0.1,1.7-0.2,2.6c-0.1,0.5-0.4,1-0.9,1.3
			C27.6,89.8,27,90,26.4,90c-0.5,0-1-0.1-1.5-0.2l0.3-1.3c0.3,0.1,0.5,0.2,0.8,0.2c0.4,0,0.7-0.1,1-0.4c0.3-0.6,0.4-1.2,0.3-1.8
			C27.3,86.5,27.4,78.4,27.4,78.4z M39.4,89.7V78.5h10.2v1.3h-8.3v3.5h7.8v1.3h-7.8v3.8H50v1.3C50,89.7,39.4,89.7,39.4,89.7z
			 M52.6,78.4h1.9v4.9c0.6,0.1,1.3-0.1,1.8-0.4c0.5-0.6,1-1.2,1.3-1.9c0.3-0.6,0.6-1.1,1-1.6c0.3-0.3,0.7-0.6,1.1-0.8
			c0.5-0.2,1.1-0.3,1.6-0.3h1.1v1.3h-0.8c-0.5,0-0.9,0.1-1.3,0.3c-0.4,0.4-0.8,0.9-1,1.5c-0.3,0.7-0.7,1.3-1.2,1.8
			c-0.4,0.2-0.8,0.4-1.2,0.6c1.1,0.4,2,1.1,2.7,2l2.9,3.7h-2.3l-2.4-3c-0.5-0.6-1-1.2-1.6-1.7c-0.5-0.3-1.1-0.5-1.7-0.5v5.3h-1.9
			V78.4z M63.2,84.2c-0.1-1.7,0.6-3.3,1.9-4.4c1.4-1.1,3.1-1.7,4.9-1.6c1.2,0,2.4,0.2,3.5,0.7c2,0.9,3.3,2.9,3.2,5.1
			c0,1.1-0.3,2.2-0.9,3.1c-0.6,0.9-1.5,1.6-2.5,2c-1.1,0.5-2.2,0.7-3.4,0.7c-1.2,0-2.5-0.3-3.6-0.8c-1-0.5-1.8-1.2-2.4-2.1
			C63.5,86.1,63.2,85.1,63.2,84.2z M65.2,84.2c0,1.2,0.5,2.4,1.4,3.2c2.1,1.6,4.9,1.6,7,0c0.9-0.8,1.4-2,1.4-3.3
			c0-0.8-0.2-1.7-0.6-2.4c-0.4-0.7-1-1.2-1.7-1.6c-0.8-0.4-1.6-0.6-2.5-0.6c-1.2,0-2.4,0.4-3.4,1.1C65.7,81.4,65,82.8,65.2,84.2z
			 M79.2,89.7V78.5H82l3.3,8c0.3,0.7,0.5,1.3,0.7,1.7c0.2-0.4,0.4-1,0.8-1.8l3.4-7.8h2.5v11.3h-1.8v-9.7l-4.1,9.4h-1.7L81,80v9.6
			h-1.8V89.7z M111.3,85.7l1.9,0.4c-0.3,1.2-1.1,2.2-2.1,2.8c-1.1,0.7-2.4,1-3.7,1c-1.3,0.1-2.5-0.2-3.7-0.7
			c-0.9-0.5-1.7-1.2-2.2-2.1c-0.5-0.9-0.7-2-0.7-3c0-1.1,0.3-2.2,0.8-3.1c0.6-0.9,1.4-1.6,2.4-2c1.1-0.5,2.2-0.7,3.4-0.7
			c1.3,0,2.5,0.3,3.6,0.9c0.9,0.5,1.6,1.4,2,2.4l-1.8,0.3c-0.3-0.7-0.8-1.4-1.4-1.8c-0.7-0.4-1.6-0.6-2.4-0.6
			c-0.9,0-1.9,0.2-2.7,0.6c-0.7,0.4-1.2,1-1.5,1.7c-0.3,0.7-0.4,1.4-0.4,2.2c0,0.9,0.2,1.7,0.5,2.5c0.3,0.7,0.9,1.3,1.6,1.6
			c0.7,0.4,1.6,0.5,2.4,0.5c0.9,0,1.9-0.2,2.7-0.7C110.6,87.3,111.1,86.5,111.3,85.7L111.3,85.7z M115.5,89.7V78.5h10.2v1.3h-8.3
			v3.5h7.8v1.3h-7.8v3.8h8.7v1.3C126.1,89.7,115.5,89.7,115.5,89.7z M128.6,89.7V78.5h5.3c0.7,0,1.5,0,2.2,0.1
			c0.6,0.1,1.2,0.2,1.7,0.5c0.5,0.3,0.8,0.6,1.1,1.1c0.3,0.5,0.4,1,0.4,1.5c0,1-0.4,1.9-1.2,2.4c-0.8,0.7-2.2,1-4.2,1h-3.6v4.6
			L128.6,89.7z M130.5,83.7h3.7c0.9,0.1,1.8-0.1,2.6-0.5c0.5-0.3,0.8-0.9,0.8-1.5c0-0.4-0.1-0.9-0.4-1.2c-0.3-0.3-0.7-0.6-1.2-0.7
			c-0.6-0.1-1.1-0.1-1.7-0.1h-3.6L130.5,83.7L130.5,83.7z M141.7,89.7V78.5h5.3c0.9,0,1.8,0.1,2.6,0.3c0.6,0.2,1.2,0.6,1.5,1.1
			c0.4,0.4,0.6,0.9,0.6,1.5c0,0.5-0.2,1-0.5,1.4c-0.4,0.5-0.9,0.8-1.5,1c0.8,0.1,1.4,0.5,2,1c0.5,0.4,0.7,1.1,0.7,1.7
			c0,0.5-0.1,1-0.4,1.5c-0.2,0.4-0.6,0.8-1,1c-0.5,0.2-1,0.4-1.5,0.6c-0.8,0.1-1.5,0.2-2.3,0.2L141.7,89.7L141.7,89.7z M143.6,83.1
			h3.1c0.6,0,1.2,0,1.8-0.1c0.4-0.1,0.8-0.3,1.1-0.6c0.2-0.3,0.4-0.6,0.4-1c0-0.4-0.1-0.7-0.3-1c-0.2-0.3-0.6-0.5-1-0.6
			c-0.7-0.2-1.5-0.2-2.2-0.2h-2.8C143.7,79.6,143.6,83.1,143.6,83.1z M143.6,88.3h3.5c0.4,0,0.9,0,1.3-0.1c0.4-0.1,0.8-0.2,1.1-0.3
			s0.5-0.4,0.7-0.6c0.2-0.3,0.3-0.6,0.3-1c0-0.4-0.1-0.8-0.4-1.1c-0.3-0.3-0.7-0.6-1.1-0.7c-0.7-0.1-1.4-0.2-2.1-0.2h-3.3
			C143.6,84.3,143.6,88.3,143.6,88.3z M155.1,78.4h1.7v8.9l7.5-8.9h1.9v11.3h-1.7v-8.9l-7.5,8.9h-1.9L155.1,78.4L155.1,78.4z
			 M179.3,85.7l1.9,0.4c-0.3,1.2-1.1,2.2-2.1,2.8c-1.1,0.7-2.4,1-3.7,1c-1.3,0.1-2.5-0.2-3.7-0.7c-0.9-0.5-1.7-1.2-2.2-2.1
			c-0.5-0.9-0.7-2-0.7-3c0-1.1,0.3-2.2,0.8-3.1c0.6-0.9,1.4-1.6,2.4-2c1.1-0.5,2.2-0.7,3.4-0.7c1.3,0,2.5,0.3,3.6,0.9
			c0.9,0.5,1.6,1.4,2,2.4l-1.8,0.3c-0.3-0.7-0.8-1.4-1.4-1.8c-0.7-0.4-1.6-0.6-2.4-0.6c-0.9,0-1.9,0.2-2.7,0.6
			c-0.7,0.4-1.2,1-1.5,1.7c-0.3,0.7-0.4,1.4-0.4,2.2c0,0.9,0.2,1.7,0.5,2.5c0.3,0.7,0.9,1.3,1.6,1.6c0.7,0.4,1.6,0.5,2.4,0.5
			c0.9,0,1.9-0.2,2.7-0.7C178.7,87.3,179.1,86.6,179.3,85.7L179.3,85.7z"/>
		<path class="st2" d="M187.8,71.1v-5.5h2.4c0.4,0,0.7,0,1.1,0.1c0.3,0.1,0.5,0.3,0.6,0.5c0.2,0.2,0.2,0.5,0.2,0.8
			c0,0.4-0.1,0.7-0.4,1c-0.3,0.3-0.8,0.5-1.2,0.5c0.2,0.1,0.3,0.2,0.4,0.3c0.2,0.2,0.4,0.4,0.6,0.7l0.9,1.5h-0.9l-0.7-1.1
			c-0.2-0.3-0.3-0.5-0.5-0.8c-0.1-0.2-0.3-0.3-0.4-0.4c-0.1-0.1-0.2-0.1-0.3-0.1h-1.2V71L187.8,71.1L187.8,71.1z M188.5,68h1.5
			c0.3,0,0.5,0,0.8-0.1c0.2-0.1,0.3-0.2,0.4-0.3c0.1-0.1,0.1-0.3,0.1-0.5c0-0.2-0.1-0.5-0.3-0.6c-0.2-0.2-0.5-0.2-0.9-0.2h-1.7
			L188.5,68L188.5,68z"/>
		<path class="st1" d="M190,64.1c1.1,0,2.1,0.5,2.9,1.2c0.8,0.8,1.2,1.8,1.2,2.9c0,1.1-0.5,2.1-1.2,2.9c-0.8,0.8-1.8,1.2-2.9,1.2
			c-1.1,0-2.1-0.5-2.9-1.2c-0.8-0.8-1.2-1.8-1.2-2.9c0-1.1,0.5-2.1,1.2-2.9C187.9,64.5,188.9,64.1,190,64.1z M192.6,65.6
			c-1.4-1.5-3.7-1.5-5.1-0.1c-1.5,1.4-1.5,3.7-0.1,5.1c1.4,1.5,3.7,1.5,5.1,0.1c0.7-0.7,1.1-1.6,1.1-2.6
			C193.6,67.2,193.2,66.3,192.6,65.6z"/>
		<polygon points="55.8,35.1 57.4,35.1 59.1,30.5 57,30.5 		"/>
		<polygon class="st1" points="55.8,35.7 54.9,35.7 55.2,34.9 56.4,30.3 56.6,29.9 57,29.9 59.4,29.9 64.8,15.3 90.3,15.3 96,0 
			19.8,0 14.1,15.3 37.3,15.3 17.6,68 45.1,68 57.2,35.7 		"/>
		<path class="st0" d="M94.9,49c-1.5,0.6-3.2,0.9-4.8,0.8c-0.7,0-1.5-0.1-2.2-0.2l-0.6-0.1l-0.1,0.2h-8.5l-0.3,0.9h4.1l-1.1,3.6l0,0
			c-1.6-0.1-3.2-0.3-4.8-0.6c-6.4-1-10.3-3.1-12.5-5.4l-0.3,1.1l-0.1,0.5h-6.9L57,49l3.7-13.2H55l0.2-0.8l1.3-4.6l0.1-0.5h10.5
			c5.4-4.5,15.1-7.5,31.5-6.9c2.9,0.1,6.1,0.4,9.3,0.7l3.7-12c-9.6-0.7-19.2-1-28.8-0.7c-25,0.6-45.2,13.6-46,28.4
			c-0.6,10.1,3.6,21.3,24.8,25.8c11.3,2.4,20.2,1.8,31.1,0.9l3.7-11.8l0,0l1.1-3.6l1-3.1h-1.6C96.3,48.2,95.6,48.7,94.9,49z"/>
		<path class="st3" d="M156,49.8c-1.7,0.1-3.4-0.3-5-1c-1.3-0.7-2.2-2-2.5-3.4c-0.4-1.9-0.4-3.8,0.2-5.6c0.7-2.9,2.3-5.4,4.6-7.3
			c2.2-1.7,5-2.6,7.8-2.6c3.1,0,5.3,0.9,6.6,2.6c1.3,1.7,1.4,4.2,0.6,7.3c-0.5,2-1.4,3.8-2.6,5.5c-1.1,1.4-2.5,2.5-4.1,3.3
			C159.8,49.4,157.9,49.8,156,49.8z M159.9,34.9c-1.1,0-2.1,0.4-2.9,1.1c-1.1,1.1-1.8,2.4-2.1,3.9c-0.5,1.8-0.5,3.1-0.1,3.8
			c0.5,0.8,1.3,1.2,2.2,1.1c1.1,0,2.1-0.4,2.9-1.1c1-1.2,1.7-2.7,2.1-4.2c0.5-1.7,0.5-2.9,0.1-3.6C161.6,35.2,160.8,34.8,159.9,34.9
			z M90.1,49.5c-0.7,0-1.4-0.1-2.1-0.2l-0.3-0.1l1.2-4.3H90c0.5,0.1,1.1-0.1,1.5-0.4c0.5-0.5,0.8-1,0.9-1.7l3.5-12.5h16.3l-5.3,19.2
			h-6.3l3.9-14h-3.7L99.3,41c-0.5,1.8-1.1,3.5-1.8,5.2c-0.5,1.1-1.4,2-2.5,2.6C93.4,49.3,91.8,49.5,90.1,49.5z M183.7,49.4l3.3-11.8
			l-6.2,11.8h-4.7l0.3-11.9l-3.3,11.9h-5.3l5.4-19.2h8l-0.3,10.3l5.4-10.3h8L189,49.4H183.7z M138.6,49.4l-0.9-5.1
			c0-0.7-0.2-1.4-0.6-2c-0.1-0.2-0.4-0.3-0.6-0.3l-2,7.3h-6.3l5.3-19.2h6.3l-2,7.1c0.2-0.1,0.4-0.2,0.6-0.4c0.7-0.9,1.4-1.8,2-2.8
			c0.6-0.9,1.3-1.8,2-2.6c0.7-0.6,1.6-1,2.5-1.2c1.6-0.2,3.1-0.3,4.7-0.3h0.4l-1.3,4.6h-0.5c-0.7,0-1.5,0.1-2.1,0.5
			c-0.6,0.4-1.1,1-1.5,1.7c-0.4,0.7-0.9,1.3-1.5,1.9c-0.3,0.3-0.7,0.6-1.1,0.8c0.5,0.3,0.9,0.7,1.2,1.2c0.5,1,0.9,2.1,1.1,3.2
			l1.1,5.5L138.6,49.4L138.6,49.4z M109.9,49.4l5.3-19.2h15.7l-1.3,4.6h-9.4l-0.6,2.3h8.7l-1.2,4.4h-8.7l-0.8,3h9.7l-1.3,4.8h-16.1
			L109.9,49.4z M71.1,49.4l5.3-19.2h15.7l-1.3,4.6h-9.4l-0.6,2.3h8.7l-1.2,4.4h-8.7l-0.8,3h9.7l-1.3,4.8H71.1L71.1,49.4z M57.2,49.4
			l3.9-14h-5.7l1.4-5.2h17.8l-1.4,5.2h-5.7l-3.9,14H57.2z"/>
	</g>
</g>
</svg>
